<mxfile host="app.diagrams.net" agent="Mozilla/5.0 (Windows NT 10.0; Win64; x64) AppleWebKit/537.36 (KHTML, like Gecko) Chrome/123.0.0.0 Safari/537.36 OPR/109.0.0.0" version="24.7.5">
  <diagram name="PÃ¡gina-1" id="dgPpo-to6DH4eBe2Tvw7">
    <mxGraphModel dx="1009" dy="542" grid="1" gridSize="10" guides="1" tooltips="1" connect="1" arrows="1" fold="1" page="1" pageScale="1" pageWidth="827" pageHeight="1169" math="0" shadow="0">
      <root>
        <mxCell id="0" />
        <mxCell id="1" parent="0" />
        <mxCell id="6vkrufNBvm1RcePVKzL8-42" style="edgeStyle=orthogonalEdgeStyle;rounded=0;orthogonalLoop=1;jettySize=auto;html=1;exitX=0;exitY=0.5;exitDx=0;exitDy=0;entryX=0.5;entryY=0;entryDx=0;entryDy=0;" edge="1" parent="1" source="6vkrufNBvm1RcePVKzL8-2" target="6vkrufNBvm1RcePVKzL8-24">
          <mxGeometry relative="1" as="geometry" />
        </mxCell>
        <mxCell id="6vkrufNBvm1RcePVKzL8-43" style="edgeStyle=orthogonalEdgeStyle;rounded=0;orthogonalLoop=1;jettySize=auto;html=1;exitX=1;exitY=0.5;exitDx=0;exitDy=0;entryX=0.5;entryY=0;entryDx=0;entryDy=0;" edge="1" parent="1" source="6vkrufNBvm1RcePVKzL8-2" target="6vkrufNBvm1RcePVKzL8-32">
          <mxGeometry relative="1" as="geometry" />
        </mxCell>
        <mxCell id="6vkrufNBvm1RcePVKzL8-48" style="edgeStyle=orthogonalEdgeStyle;rounded=0;orthogonalLoop=1;jettySize=auto;html=1;exitX=0.5;exitY=1;exitDx=0;exitDy=0;entryX=0.5;entryY=0;entryDx=0;entryDy=0;" edge="1" parent="1" source="6vkrufNBvm1RcePVKzL8-2" target="6vkrufNBvm1RcePVKzL8-28">
          <mxGeometry relative="1" as="geometry" />
        </mxCell>
        <mxCell id="6vkrufNBvm1RcePVKzL8-2" value="iPhone" style="swimlane;fontStyle=1;align=center;verticalAlign=top;childLayout=stackLayout;horizontal=1;startSize=26;horizontalStack=0;resizeParent=1;resizeParentMax=0;resizeLast=0;collapsible=1;marginBottom=0;whiteSpace=wrap;html=1;" vertex="1" parent="1">
          <mxGeometry x="330" y="210" width="160" height="34" as="geometry" />
        </mxCell>
        <mxCell id="6vkrufNBvm1RcePVKzL8-4" value="" style="line;strokeWidth=1;fillColor=none;align=left;verticalAlign=middle;spacingTop=-1;spacingLeft=3;spacingRight=3;rotatable=0;labelPosition=right;points=[];portConstraint=eastwest;strokeColor=inherit;" vertex="1" parent="6vkrufNBvm1RcePVKzL8-2">
          <mxGeometry y="26" width="160" height="8" as="geometry" />
        </mxCell>
        <mxCell id="6vkrufNBvm1RcePVKzL8-24" value="&amp;lt;&amp;lt;interface&amp;gt;&amp;gt;&lt;div&gt;ReprodutorMusical&lt;/div&gt;" style="swimlane;fontStyle=0;childLayout=stackLayout;horizontal=1;startSize=26;fillColor=none;horizontalStack=0;resizeParent=1;resizeParentMax=0;resizeLast=0;collapsible=1;marginBottom=0;whiteSpace=wrap;html=1;" vertex="1" parent="1">
          <mxGeometry x="20" y="320" width="200" height="102" as="geometry" />
        </mxCell>
        <mxCell id="6vkrufNBvm1RcePVKzL8-25" value="tocar()" style="text;strokeColor=none;fillColor=none;align=left;verticalAlign=top;spacingLeft=4;spacingRight=4;overflow=hidden;rotatable=0;points=[[0,0.5],[1,0.5]];portConstraint=eastwest;whiteSpace=wrap;html=1;" vertex="1" parent="6vkrufNBvm1RcePVKzL8-24">
          <mxGeometry y="26" width="200" height="26" as="geometry" />
        </mxCell>
        <mxCell id="6vkrufNBvm1RcePVKzL8-26" value="pausar()" style="text;strokeColor=none;fillColor=none;align=left;verticalAlign=top;spacingLeft=4;spacingRight=4;overflow=hidden;rotatable=0;points=[[0,0.5],[1,0.5]];portConstraint=eastwest;whiteSpace=wrap;html=1;" vertex="1" parent="6vkrufNBvm1RcePVKzL8-24">
          <mxGeometry y="52" width="200" height="26" as="geometry" />
        </mxCell>
        <mxCell id="6vkrufNBvm1RcePVKzL8-27" value="selecionarMusica(String musica)" style="text;strokeColor=none;fillColor=none;align=left;verticalAlign=top;spacingLeft=4;spacingRight=4;overflow=hidden;rotatable=0;points=[[0,0.5],[1,0.5]];portConstraint=eastwest;whiteSpace=wrap;html=1;" vertex="1" parent="6vkrufNBvm1RcePVKzL8-24">
          <mxGeometry y="78" width="200" height="24" as="geometry" />
        </mxCell>
        <mxCell id="6vkrufNBvm1RcePVKzL8-28" value="&amp;lt;&amp;lt;interface&amp;gt;&amp;gt;&lt;div&gt;AparelhoTelefonico&lt;/div&gt;" style="swimlane;fontStyle=0;childLayout=stackLayout;horizontal=1;startSize=26;fillColor=none;horizontalStack=0;resizeParent=1;resizeParentMax=0;resizeLast=0;collapsible=1;marginBottom=0;whiteSpace=wrap;html=1;" vertex="1" parent="1">
          <mxGeometry x="310" y="330" width="200" height="102" as="geometry" />
        </mxCell>
        <mxCell id="6vkrufNBvm1RcePVKzL8-29" value="ligar(String numero)" style="text;strokeColor=none;fillColor=none;align=left;verticalAlign=top;spacingLeft=4;spacingRight=4;overflow=hidden;rotatable=0;points=[[0,0.5],[1,0.5]];portConstraint=eastwest;whiteSpace=wrap;html=1;" vertex="1" parent="6vkrufNBvm1RcePVKzL8-28">
          <mxGeometry y="26" width="200" height="26" as="geometry" />
        </mxCell>
        <mxCell id="6vkrufNBvm1RcePVKzL8-30" value="atender()" style="text;strokeColor=none;fillColor=none;align=left;verticalAlign=top;spacingLeft=4;spacingRight=4;overflow=hidden;rotatable=0;points=[[0,0.5],[1,0.5]];portConstraint=eastwest;whiteSpace=wrap;html=1;" vertex="1" parent="6vkrufNBvm1RcePVKzL8-28">
          <mxGeometry y="52" width="200" height="26" as="geometry" />
        </mxCell>
        <mxCell id="6vkrufNBvm1RcePVKzL8-31" value="iniciarCorreioDeVoz()" style="text;strokeColor=none;fillColor=none;align=left;verticalAlign=top;spacingLeft=4;spacingRight=4;overflow=hidden;rotatable=0;points=[[0,0.5],[1,0.5]];portConstraint=eastwest;whiteSpace=wrap;html=1;" vertex="1" parent="6vkrufNBvm1RcePVKzL8-28">
          <mxGeometry y="78" width="200" height="24" as="geometry" />
        </mxCell>
        <mxCell id="6vkrufNBvm1RcePVKzL8-32" value="&amp;lt;&amp;lt;interface&amp;gt;&amp;gt;&lt;div&gt;NavegadorDeInternet&lt;/div&gt;" style="swimlane;fontStyle=0;childLayout=stackLayout;horizontal=1;startSize=26;fillColor=none;horizontalStack=0;resizeParent=1;resizeParentMax=0;resizeLast=0;collapsible=1;marginBottom=0;whiteSpace=wrap;html=1;" vertex="1" parent="1">
          <mxGeometry x="630" y="310" width="200" height="102" as="geometry" />
        </mxCell>
        <mxCell id="6vkrufNBvm1RcePVKzL8-33" value="exibirPagina(String url)" style="text;strokeColor=none;fillColor=none;align=left;verticalAlign=top;spacingLeft=4;spacingRight=4;overflow=hidden;rotatable=0;points=[[0,0.5],[1,0.5]];portConstraint=eastwest;whiteSpace=wrap;html=1;" vertex="1" parent="6vkrufNBvm1RcePVKzL8-32">
          <mxGeometry y="26" width="200" height="26" as="geometry" />
        </mxCell>
        <mxCell id="6vkrufNBvm1RcePVKzL8-34" value="adicionarNovaAba()" style="text;strokeColor=none;fillColor=none;align=left;verticalAlign=top;spacingLeft=4;spacingRight=4;overflow=hidden;rotatable=0;points=[[0,0.5],[1,0.5]];portConstraint=eastwest;whiteSpace=wrap;html=1;" vertex="1" parent="6vkrufNBvm1RcePVKzL8-32">
          <mxGeometry y="52" width="200" height="26" as="geometry" />
        </mxCell>
        <mxCell id="6vkrufNBvm1RcePVKzL8-35" value="atualizarPagina()" style="text;strokeColor=none;fillColor=none;align=left;verticalAlign=top;spacingLeft=4;spacingRight=4;overflow=hidden;rotatable=0;points=[[0,0.5],[1,0.5]];portConstraint=eastwest;whiteSpace=wrap;html=1;" vertex="1" parent="6vkrufNBvm1RcePVKzL8-32">
          <mxGeometry y="78" width="200" height="24" as="geometry" />
        </mxCell>
      </root>
    </mxGraphModel>
  </diagram>
</mxfile>
